<?xml version="1.0" encoding="UTF-8" standalone="no"?>
<svg height="287.41199" viewBox="0 0 339.9997 287.41199" width="339.99969" xmlns="http://www.w3.org/2000/svg">
   <path d="m70.324211 200.50433l.453454-4.93617h269.222015l-251.757565-195.56816-88.242115 198.3148 62.524805 89.0972 276.295895-86.90767zm15.274916-182.495732l-16.259559 177.624342h-62.732096zm-23.786892 259.803132l-54.258993-77.3074h61.332873z" fill="#131718" stroke-width="1.29558241"/>
   <path d="m101.50888 137.79815h19.49851l6.47792 38.14194h-8.75814l-1.64539-9.85938h-11.66024l-1.63244 9.85938h-8.822913zm14.10889 19.66694l-1.80086-11.06428h-5.11755l-1.80086 11.06428z" fill="#fff" stroke-width="1.29558241"/>
   <path d="m144.6129 146.40081h-10.89584l1.08829-8.60266h29.42267l-1.08829 8.60266h-9.80756v29.53928h-8.71927z" fill="#fff" stroke-width="1.29558241"/>
   <path d="m174.37243 163.95595a24.007142 24.007142 0 0 0 12.52828 4.13291c3.05757 0 5.40258-1.08829 5.40258-3.16122 0-5.0139-19.73172-2.17658-19.73172-15.31379 0-8.60266 6.59452-12.35985 14.44574-12.35985a24.512419 24.512419 0 0 1 12.74854 3.26487l-1.54175 8.47311a25.134298 25.134298 0 0 0-11.16792-3.32965c-3.05757 0-5.38962 1.10125-5.38962 3.16122 0 5.0139 19.71877 2.18953 19.71877 15.31379 0 8.61561-6.59452 12.37281-14.44575 12.37281a24.175567 24.175567 0 0 1-14.1089-4.09405z" fill="#fff" stroke-width="1.29558241"/>
   <path d="m212.61803 137.79815h24.47355l-1.0883 8.60266h-14.66599v6.71112h15.75429l-1.0883 8.60266h-14.66599v5.60988h15.75429l-1.0883 8.61562h-23.38525z" fill="#fff" stroke-width="1.29558241"/>
</svg>
